<mxfile host="app.diagrams.net" agent="Mozilla/5.0 (Macintosh; Intel Mac OS X 10_15_7) AppleWebKit/605.1.15 (KHTML, like Gecko) Version/18.6 Safari/605.1.15" version="28.2.3">
  <diagram name="Страница — 2" id="oJDA_zJ75NJ7X2v0WVPj">
    <mxGraphModel dx="3904" dy="2896" grid="1" gridSize="10" guides="1" tooltips="1" connect="1" arrows="1" fold="1" page="1" pageScale="1" pageWidth="827" pageHeight="1169" math="0" shadow="0">
      <root>
        <mxCell id="0" />
        <mxCell id="1" parent="0" />
        <mxCell id="gldtsVEIOEpTuRQxnS90-72" style="edgeStyle=orthogonalEdgeStyle;rounded=0;orthogonalLoop=1;jettySize=auto;html=1;exitX=0;exitY=0.5;exitDx=0;exitDy=0;" edge="1" parent="1" source="gldtsVEIOEpTuRQxnS90-74" target="gldtsVEIOEpTuRQxnS90-76">
          <mxGeometry relative="1" as="geometry" />
        </mxCell>
        <mxCell id="gldtsVEIOEpTuRQxnS90-73" style="edgeStyle=orthogonalEdgeStyle;rounded=0;orthogonalLoop=1;jettySize=auto;html=1;exitX=1;exitY=0.5;exitDx=0;exitDy=0;entryX=0.75;entryY=0;entryDx=0;entryDy=0;" edge="1" parent="1" source="gldtsVEIOEpTuRQxnS90-74" target="gldtsVEIOEpTuRQxnS90-80">
          <mxGeometry relative="1" as="geometry">
            <Array as="points">
              <mxPoint x="984" y="900" />
              <mxPoint x="984" y="1240" />
              <mxPoint x="847" y="1240" />
            </Array>
          </mxGeometry>
        </mxCell>
        <mxCell id="gldtsVEIOEpTuRQxnS90-74" value="Парнер новый?" style="rhombus;whiteSpace=wrap;html=1;" vertex="1" parent="1">
          <mxGeometry x="790" y="860" width="80" height="80" as="geometry" />
        </mxCell>
        <mxCell id="gldtsVEIOEpTuRQxnS90-75" style="edgeStyle=orthogonalEdgeStyle;rounded=0;orthogonalLoop=1;jettySize=auto;html=1;exitX=0.5;exitY=1;exitDx=0;exitDy=0;entryX=0.5;entryY=0;entryDx=0;entryDy=0;" edge="1" parent="1" source="gldtsVEIOEpTuRQxnS90-76" target="gldtsVEIOEpTuRQxnS90-78">
          <mxGeometry relative="1" as="geometry" />
        </mxCell>
        <mxCell id="gldtsVEIOEpTuRQxnS90-76" value="Регистарция партнера" style="rounded=1;whiteSpace=wrap;html=1;" vertex="1" parent="1">
          <mxGeometry x="595" y="1050" width="120" height="60" as="geometry" />
        </mxCell>
        <mxCell id="gldtsVEIOEpTuRQxnS90-77" style="edgeStyle=orthogonalEdgeStyle;rounded=0;orthogonalLoop=1;jettySize=auto;html=1;exitX=0.5;exitY=1;exitDx=0;exitDy=0;entryX=0.25;entryY=0;entryDx=0;entryDy=0;" edge="1" parent="1" source="gldtsVEIOEpTuRQxnS90-78" target="gldtsVEIOEpTuRQxnS90-80">
          <mxGeometry relative="1" as="geometry">
            <Array as="points">
              <mxPoint x="655" y="1240" />
              <mxPoint x="787" y="1240" />
            </Array>
          </mxGeometry>
        </mxCell>
        <mxCell id="gldtsVEIOEpTuRQxnS90-78" value="Присвоение рейтинга/скидки" style="rounded=1;whiteSpace=wrap;html=1;" vertex="1" parent="1">
          <mxGeometry x="595" y="1140" width="120" height="60" as="geometry" />
        </mxCell>
        <mxCell id="gldtsVEIOEpTuRQxnS90-79" style="edgeStyle=orthogonalEdgeStyle;rounded=0;orthogonalLoop=1;jettySize=auto;html=1;exitX=0.5;exitY=1;exitDx=0;exitDy=0;entryX=0.5;entryY=0;entryDx=0;entryDy=0;" edge="1" parent="1" source="gldtsVEIOEpTuRQxnS90-80" target="gldtsVEIOEpTuRQxnS90-84">
          <mxGeometry relative="1" as="geometry" />
        </mxCell>
        <mxCell id="gldtsVEIOEpTuRQxnS90-80" value="Формирование персонального предложения" style="rounded=1;whiteSpace=wrap;html=1;" vertex="1" parent="1">
          <mxGeometry x="757" y="1290" width="120" height="60" as="geometry" />
        </mxCell>
        <mxCell id="gldtsVEIOEpTuRQxnS90-81" style="edgeStyle=orthogonalEdgeStyle;rounded=0;orthogonalLoop=1;jettySize=auto;html=1;exitX=0.5;exitY=1;exitDx=0;exitDy=0;entryX=0.5;entryY=0;entryDx=0;entryDy=0;" edge="1" parent="1" source="gldtsVEIOEpTuRQxnS90-82" target="gldtsVEIOEpTuRQxnS90-74">
          <mxGeometry relative="1" as="geometry" />
        </mxCell>
        <mxCell id="gldtsVEIOEpTuRQxnS90-82" value="" style="ellipse;whiteSpace=wrap;html=1;aspect=fixed;fillColor=#d5e8d4;strokeColor=#82b366;" vertex="1" parent="1">
          <mxGeometry x="805" y="710" width="50" height="50" as="geometry" />
        </mxCell>
        <mxCell id="gldtsVEIOEpTuRQxnS90-83" value="Партнёр" style="text;html=1;align=center;verticalAlign=middle;resizable=0;points=[];autosize=1;strokeColor=none;fillColor=none;" vertex="1" parent="1">
          <mxGeometry x="790" y="650" width="70" height="30" as="geometry" />
        </mxCell>
        <mxCell id="gldtsVEIOEpTuRQxnS90-84" value="" style="ellipse;whiteSpace=wrap;html=1;aspect=fixed;fillColor=#f8cecc;strokeColor=#b85450;" vertex="1" parent="1">
          <mxGeometry x="792" y="1380" width="50" height="50" as="geometry" />
        </mxCell>
        <mxCell id="gldtsVEIOEpTuRQxnS90-85" value="" style="rounded=0;whiteSpace=wrap;html=1;fillColor=none;" vertex="1" parent="1">
          <mxGeometry x="440" y="620" width="770" height="870" as="geometry" />
        </mxCell>
        <mxCell id="gldtsVEIOEpTuRQxnS90-86" value="&lt;font style=&quot;font-size: 16px;&quot;&gt;РИСУНОК БП&lt;br&gt;РЕГСТИТРАЦИЯ ПАРТ&lt;span style=&quot;background-color: transparent; color: light-dark(rgb(0, 0, 0), rgb(255, 255, 255));&quot;&gt;НЕРА&lt;/span&gt;&lt;/font&gt;" style="text;html=1;align=center;verticalAlign=middle;whiteSpace=wrap;rounded=0;" vertex="1" parent="1">
          <mxGeometry x="464" y="640" width="110" height="50" as="geometry" />
        </mxCell>
      </root>
    </mxGraphModel>
  </diagram>
</mxfile>
